<svg width="35" height="36" viewBox="0 0 35 36" fill="none" xmlns="http://www.w3.org/2000/svg">
<g id="&#240;&#159;&#166;&#134; icon &#34;clock&#34;">
<path id="Vector" d="M17.5 0.0990601C7.875 0.0990601 0 7.99844 0 17.6532C0 27.308 7.875 35.2074 17.5 35.2074C27.125 35.2074 35 27.308 35 17.6532C35 7.99844 27.125 0.0990601 17.5 0.0990601ZM17.5 4.48761C24.7625 4.48761 30.625 10.3683 30.625 17.6532C30.625 24.9382 24.7625 30.8189 17.5 30.8189C10.2375 30.8189 4.375 24.9382 4.375 17.6532C4.375 10.3683 10.2375 4.48761 17.5 4.48761ZM15.3125 8.87615V18.6187L16.0125 19.1892L18.2 21.3835L19.6875 23.0512L22.8375 19.8914L21.175 18.3993L19.6875 16.9072V8.96392H15.3125V8.87615Z" fill="white"/>
</g>
</svg>
