<svg width="50" height="61" viewBox="0 0 50 61" fill="none" xmlns="http://www.w3.org/2000/svg">
<path d="M24.6548 0L0 15.2V45.6L24.6548 60.8L49.3095 45.6V15.2L24.6548 0ZM11.1587 20.2667L24.6548 3.05608L37.4722 20.2667H11.1587ZM37.6984 21.8751L24.6548 46.8063L10.9325 21.8751H37.6984ZM23.2222 47.2889L2.3373 43.6698L9.72619 22.8402L23.2222 47.2889ZM38.9048 22.9206L46.9722 43.7503L26.0873 47.3693L38.9048 22.9206ZM39.1309 20.0254L26.6151 3.05608L46.9722 15.6021L39.1309 20.0254ZM9.4246 20.0254L2.3373 15.6021L22.5437 3.13651L9.4246 20.0254ZM8.67063 21.3926L1.50794 41.4984V16.9693L8.67063 21.3926ZM23.9008 49.0582V58.4677L2.71429 45.4391L23.9008 49.0582ZM25.4087 49.0582L46.5952 45.4391L25.4087 58.4677V49.0582ZM39.9603 21.3926L47.877 16.8889V41.7397L39.9603 21.3926Z" fill="white"/>
</svg>
