<svg width="37" height="40" viewBox="0 0 37 40" fill="none" xmlns="http://www.w3.org/2000/svg">
<g id="search_FILL0_wght400_GRAD0_opsz48 1">
<path id="Vector" d="M30.0542 38.6L19.9177 27.7878C19.1469 28.5004 18.2481 29.0554 17.2214 29.4528C16.1946 29.8502 15.1021 30.0489 13.9438 30.0489C11.1646 30.0489 8.81251 29.0211 6.8875 26.9656C4.9625 24.91 4 22.4296 4 19.5244C4 16.6193 4.96354 14.1389 6.89063 12.0833C8.81771 10.0278 11.1495 9 13.8859 9C16.6224 9 18.9477 10.0278 20.862 12.0833C22.7762 14.1389 23.7333 16.6213 23.7333 19.5306C23.7333 20.705 23.5535 21.8404 23.1938 22.9367C22.834 24.033 22.2944 25.0607 21.575 26.02L31.75 36.7911L30.0542 38.6ZM13.9052 27.5822C15.9929 27.5822 17.7674 26.7943 19.2288 25.2183C20.6901 23.6424 21.4208 21.7444 21.4208 19.5244C21.4208 17.3044 20.6901 15.4065 19.2288 13.8306C17.7674 12.2546 15.9929 11.4667 13.9052 11.4667C11.7961 11.4667 10.0034 12.2546 8.52703 13.8306C7.05068 15.4065 6.3125 17.3044 6.3125 19.5244C6.3125 21.7444 7.05068 23.6424 8.52703 25.2183C10.0034 26.7943 11.7961 27.5822 13.9052 27.5822Z" fill="black"/>
</g>
</svg>
